<?xml version="1.0" encoding="UTF-8"?>
<svg version="1.1" xmlns="http://www.w3.org/2000/svg" width="600" height="480">
<path d="M0 0 C198 0 396 0 600 0 C600 158.4 600 316.8 600 480 C402 480 204 480 0 480 C0 321.6 0 163.2 0 0 Z " fill="#FEFEFE" transform="translate(0,0)"/>
<path d="M0 0 C0.69593262 0.00021149 1.39186523 0.00042297 2.10888672 0.00064087 C30.47912484 0.0861178 61.38730022 6.38747248 83.18359375 25.8203125 C85.72078412 28.44317423 87.67957658 31.33269179 89.6875 34.375 C90.0175 31.075 90.3475 27.775 90.6875 24.375 C93.76887704 27.45637704 93.66031954 30.44760266 93.78515625 34.70703125 C93.76775391 36.42986328 93.76775391 36.42986328 93.75 38.1875 C93.74097656 39.34894531 93.73195313 40.51039062 93.72265625 41.70703125 C93.70525391 43.02767578 93.70525391 43.02767578 93.6875 44.375 C94.35136719 44.1584375 95.01523437 43.941875 95.69921875 43.71875 C96.58222656 43.4403125 97.46523438 43.161875 98.375 42.875 C99.24511719 42.5965625 100.11523438 42.318125 101.01171875 42.03125 C103.68141677 41.37649195 105.95146684 41.25668505 108.6875 41.375 C106.18501135 43.04332577 104.27600813 43.99881674 101.5 45 C100.42685547 45.39058594 100.42685547 45.39058594 99.33203125 45.7890625 C98.51798828 46.07910156 98.51798828 46.07910156 97.6875 46.375 C99.02547029 49.26119305 100.56482396 51.59386925 102.5625 54.0625 C112.96926686 67.76897342 113.2921468 85.25525841 111.41503906 101.77246094 C109.76332984 112.25824102 106.1860791 122.37191254 102.98046875 132.45776367 C98.14985737 147.89447433 94.48700853 163.65957469 90.6875 179.375 C90.3575 179.375 90.0275 179.375 89.6875 179.375 C89.6781543 178.79983643 89.66880859 178.22467285 89.65917969 177.63208008 C89.29228318 159.30703825 87.31277529 141.28906943 84.13500977 123.23632812 C83.57374813 119.64768308 83.57939559 116.12028835 83.625 112.5 C83.62951172 111.81164062 83.63402344 111.12328125 83.63867188 110.4140625 C83.65033664 108.73433665 83.66826729 107.05465625 83.6875 105.375 C82.9140625 105.70113281 82.140625 106.02726562 81.34375 106.36328125 C80.3021875 106.80027344 79.260625 107.23726563 78.1875 107.6875 C77.08921875 108.14898437 75.9909375 108.61046875 74.859375 109.0859375 C72.39741043 110.0864896 69.95630635 110.97625629 67.4375 111.8125 C62.91566256 113.44644126 59.37053397 116.34825134 55.6875 119.375 C56.94988606 109.43552357 62.96870969 101.65327424 68.953125 93.8828125 C71.82805467 89.7258196 72.91192211 86.06972363 73.3125 81.0625 C73.38726562 80.17949219 73.46203125 79.29648438 73.5390625 78.38671875 C73.61253906 77.39091797 73.61253906 77.39091797 73.6875 76.375 C72.34171875 77.40947266 72.34171875 77.40947266 70.96875 78.46484375 C58.34531132 88.02608494 44.96595604 95.5479244 30.6875 102.375 C29.84574219 102.78105469 29.00398437 103.18710938 28.13671875 103.60546875 C15.70103589 109.4364642 2.80245108 114.13383742 -10.25 118.375 C-11.20366455 118.69001465 -12.1573291 119.0050293 -13.13989258 119.32958984 C-14.03087646 119.6127002 -14.92186035 119.89581055 -15.83984375 120.1875 C-16.63124756 120.44144531 -17.42265137 120.69539063 -18.23803711 120.95703125 C-20.3125 121.375 -20.3125 121.375 -23.3125 120.375 C-22.34570312 119.8903125 -21.37890625 119.405625 -20.3828125 118.90625 C-5.50523489 111.30466587 5.69175044 101.77355792 15.6875 88.375 C12.36744495 89.91507215 9.49783031 91.84451551 6.5 93.9375 C-11.68959365 106.07850588 -33.5917769 116.75487948 -55.3125 120.375 C-56.3025 120.045 -57.2925 119.715 -58.3125 119.375 C-57.50425781 118.69695312 -56.69601563 118.01890625 -55.86328125 117.3203125 C-49.29688934 111.65613383 -44.41675568 106.69512715 -41.3125 98.375 C-41.6425 98.045 -41.9725 97.715 -42.3125 97.375 C-43.6428125 98.4578125 -43.6428125 98.4578125 -45 99.5625 C-45.49886719 99.96855469 -45.99773437 100.37460938 -46.51171875 100.79296875 C-48.44672516 102.44789339 -48.44672516 102.44789339 -50.5859375 104.7421875 C-53.61481121 107.66691656 -56.75302054 109.98816582 -60.25 112.3125 C-60.89807617 112.7441748 -61.54615234 113.17584961 -62.21386719 113.62060547 C-68.77546844 117.86737548 -77.3463171 123.375 -85.3125 123.375 C-85.2417627 123.96966064 -85.17102539 124.56432129 -85.09814453 125.17700195 C-84.24714203 133.21366621 -84.15963644 141.20907187 -84.18212891 149.27954102 C-84.18745 151.54124788 -84.18217371 153.80275257 -84.17578125 156.06445312 C-84.17178269 165.8701255 -84.58316933 175.5971511 -85.3125 185.375 C-87.98305488 182.70444512 -88.2278334 179.88144727 -89 176.3125 C-91.49324497 165.67280616 -95.61800929 155.8035725 -100.4375 146.015625 C-104.79698813 137.15727255 -107.87661414 129.23633178 -109.3125 119.375 C-109.49554688 118.14007813 -109.67859375 116.90515625 -109.8671875 115.6328125 C-112.91999615 90.32560251 -109.08137228 63.57177524 -94.3125 42.375 C-90.93707311 38.08147775 -87.18979195 34.21401121 -83.3125 30.375 C-82.53261719 29.57320312 -81.75273437 28.77140625 -80.94921875 27.9453125 C-60.20433539 7.79314009 -28.05003165 -0.07911676 0 0 Z " fill="#241A16" transform="translate(299.3125,78.625)"/>
<path d="M0 0 C1.15822266 -0.01740234 1.15822266 -0.01740234 2.33984375 -0.03515625 C7.97773075 -0.00584315 7.97773075 -0.00584315 10.21987915 1.62915039 C11.82090068 3.81264956 11.87979641 5.01548797 11.88818359 7.70703125 C11.89764008 8.57803467 11.90709656 9.44903809 11.9168396 10.34643555 C11.91076691 11.28398682 11.90469421 12.22153809 11.8984375 13.1875 C11.90130768 14.15276611 11.90417786 15.11803223 11.90713501 16.11254883 C11.90917661 18.15348904 11.90364007 20.19444877 11.89111328 22.23535156 C11.8750612 25.3630744 11.89095895 28.48950496 11.91015625 31.6171875 C11.90817384 33.59896119 11.9043302 35.58073408 11.8984375 37.5625 C11.90754654 38.9688269 11.90754654 38.9688269 11.9168396 40.40356445 C11.90738312 41.27456787 11.89792664 42.14557129 11.88818359 43.04296875 C11.88579681 43.80891357 11.88341003 44.5748584 11.88095093 45.36401367 C11.3902548 47.95432945 10.61696708 48.83128974 8.5 50.375 C5.57742357 50.6731028 2.91654217 50.79382117 0 50.75 C-0.77214844 50.76160156 -1.54429687 50.77320313 -2.33984375 50.78515625 C-7.97773075 50.75584315 -7.97773075 50.75584315 -10.21987915 49.12084961 C-11.82090068 46.93735044 -11.87979641 45.73451203 -11.88818359 43.04296875 C-11.89764008 42.17196533 -11.90709656 41.30096191 -11.9168396 40.40356445 C-11.91076691 39.46601318 -11.90469421 38.52846191 -11.8984375 37.5625 C-11.90130768 36.59723389 -11.90417786 35.63196777 -11.90713501 34.63745117 C-11.90917661 32.59651096 -11.90364007 30.55555123 -11.89111328 28.51464844 C-11.8750612 25.3869256 -11.89095895 22.26049504 -11.91015625 19.1328125 C-11.90817384 17.15103881 -11.9043302 15.16926592 -11.8984375 13.1875 C-11.90451019 12.24994873 -11.91058289 11.31239746 -11.9168396 10.34643555 C-11.90738312 9.47543213 -11.89792664 8.60442871 -11.88818359 7.70703125 C-11.88579681 6.94108643 -11.88341003 6.1751416 -11.88095093 5.38598633 C-10.70518955 -0.82069252 -5.16646816 -0.0776264 0 0 Z " fill="#271F1C" transform="translate(235.5,291.625)"/>
<path d="M0 0 C6.93 0 13.86 0 21 0 C24 3 24 3 24.34057617 5.72729492 C24.32486572 6.80084229 24.30915527 7.87438965 24.29296875 8.98046875 C24.28330078 10.14384766 24.27363281 11.30722656 24.26367188 12.50585938 C24.23853516 13.72080078 24.21339844 14.93574219 24.1875 16.1875 C24.16719727 18.02731445 24.16719727 18.02731445 24.14648438 19.90429688 C24.11108741 22.93663664 24.0617076 25.96809996 24 29 C23.01 29.33 22.02 29.66 21 30 C21.2165625 31.19238281 21.433125 32.38476562 21.65625 33.61328125 C21.93763596 35.17966308 22.21887849 36.74607068 22.5 38.3125 C22.64308594 39.09818359 22.78617187 39.88386719 22.93359375 40.69335938 C23.06894531 41.45068359 23.20429688 42.20800781 23.34375 42.98828125 C23.46943359 43.68477783 23.59511719 44.38127441 23.72460938 45.09887695 C24 47 24 47 24 50 C21.69 50 19.38 50 17 50 C16.32923511 47.23010036 15.66323683 44.45920258 15 41.6875 C14.80921875 40.90181641 14.6184375 40.11613281 14.421875 39.30664062 C14.24140625 38.54931641 14.0609375 37.79199219 13.875 37.01171875 C13.70742188 36.31522217 13.53984375 35.61872559 13.3671875 34.90112305 C13 33 13 33 13 30 C11.68 30.33 10.36 30.66 9 31 C9 37.27 9 43.54 9 50 C6.36 50 3.72 50 1 50 C0.67 33.5 0.34 17 0 0 Z " fill="#2B2320" transform="translate(295,292)"/>
<path d="M0 0 C2.64 0 5.28 0 8 0 C8 14.19 8 28.38 8 43 C10.97 43 13.94 43 17 43 C17 28.81 17 14.62 17 0 C19.31 0 21.62 0 24 0 C24.07596686 6.63851606 24.12856456 13.27692035 24.16479492 19.91577148 C24.17989602 22.17492868 24.20037842 24.43405649 24.22631836 26.69311523 C24.26264308 29.93741093 24.27971308 33.18131956 24.29296875 36.42578125 C24.30845261 37.43836502 24.32393646 38.45094879 24.33988953 39.49421692 C24.34011612 40.43496567 24.34034271 41.37571442 24.34057617 42.3449707 C24.34723801 43.17325882 24.35389984 44.00154694 24.36076355 44.85493469 C23.90752701 47.54983548 23.20784717 48.41866997 21 50 C18.07742357 50.2981028 15.41654217 50.41882117 12.5 50.375 C11.72785156 50.38660156 10.95570313 50.39820313 10.16015625 50.41015625 C4.53001713 50.38088343 4.53001713 50.38088343 2.28288269 48.76603699 C0.63524666 46.49787467 0.60503464 45.13558437 0.56762695 42.3449707 C0.54783279 41.40422195 0.52803864 40.46347321 0.50764465 39.49421692 C0.50125473 38.48163315 0.49486481 37.46904938 0.48828125 36.42578125 C0.47033005 35.38681198 0.45237885 34.34784271 0.43388367 33.27738953 C0.37965957 29.95580109 0.34584572 26.63435734 0.3125 23.3125 C0.27933766 21.06182877 0.24484903 18.81117666 0.20898438 16.56054688 C0.12392632 11.04049432 0.05562777 5.52042331 0 0 Z " fill="#251C19" transform="translate(259,292)"/>
<path d="M0 0 C1.15822266 -0.01740234 1.15822266 -0.01740234 2.33984375 -0.03515625 C8.01560972 -0.0056462 8.01560972 -0.0056462 10.22583008 1.73120117 C12.100485 4.14968203 11.79364205 6.0551418 11.6875 9.0625 C11.66042969 10.05636719 11.63335937 11.05023438 11.60546875 12.07421875 C11.57066406 12.83347656 11.53585937 13.59273438 11.5 14.375 C9.19 14.375 6.88 14.375 4.5 14.375 C4.5 12.065 4.5 9.755 4.5 7.375 C0.045 7.87 0.045 7.87 -4.5 8.375 C-4.21727284 14.86940913 -1.97820155 17.88816063 2.375 22.5625 C3.96724361 24.330609 5.55704521 26.10085887 7.14501953 27.87280273 C8.20376555 29.04658007 9.27855327 30.20589299 10.359375 31.359375 C12.06944982 34.38128804 11.89669311 36.99914189 11.875 40.4375 C11.88273437 41.66597656 11.89046875 42.89445312 11.8984375 44.16015625 C11.5 47.375 11.5 47.375 10.21923828 49.05102539 C7.23837196 51.34657184 3.60606818 50.80418132 0 50.75 C-0.77214844 50.76160156 -1.54429687 50.77320313 -2.33984375 50.78515625 C-8.01560972 50.7556462 -8.01560972 50.7556462 -10.22583008 49.01879883 C-12.100485 46.60031797 -11.79364205 44.6948582 -11.6875 41.6875 C-11.66042969 40.69363281 -11.63335937 39.69976562 -11.60546875 38.67578125 C-11.57066406 37.91652344 -11.53585937 37.15726562 -11.5 36.375 C-9.19 36.375 -6.88 36.375 -4.5 36.375 C-4.5 38.685 -4.5 40.995 -4.5 43.375 C-1.53 43.375 1.44 43.375 4.5 43.375 C4.23761171 36.36768929 2.3760677 33.15423325 -2.375 28.125 C-3.4565236 26.93301199 -4.53727536 25.74032314 -5.6171875 24.546875 C-7.18552246 22.81639356 -8.76077423 21.09724258 -10.359375 19.39453125 C-12.06763578 16.36997363 -11.89670402 13.75258782 -11.875 10.3125 C-11.88273437 9.08402344 -11.89046875 7.85554688 -11.8984375 6.58984375 C-11.5 3.375 -11.5 3.375 -10.21923828 1.69897461 C-7.23837196 -0.59657184 -3.60606818 -0.05418132 0 0 Z " fill="#261E1B" transform="translate(364.5,291.625)"/>
<path d="M0 0 C8.25 0 16.5 0 25 0 C25 2.31 25 4.62 25 7 C24.67 7.33 24.34 7.66 24 8 C21.69 8 19.38 8 17 8 C17 21.86 17 35.72 17 50 C14.36 50 11.72 50 9 50 C9 36.14 9 22.28 9 8 C6.69 8 4.38 8 2 8 C2 5.69 2 3.38 2 1 C1.34 0.67 0.68 0.34 0 0 Z " fill="#47403D" transform="translate(186,292)"/>
<path d="M0 0 C7.92 0 15.84 0 24 0 C24 2.64 24 5.28 24 8 C21.69 8 19.38 8 17 8 C17 21.86 17 35.72 17 50 C14.36 50 11.72 50 9 50 C9 35.81 9 21.62 9 7 C6.36 7 3.72 7 1 7 C0.67 4.69 0.34 2.38 0 0 Z " fill="#372F2C" transform="translate(388,292)"/>
<path d="M0 0 C2.97 0 5.94 0 9 0 C9 16.5 9 33 9 50 C6.69 50 4.38 50 2 50 C2 33.83 2 17.66 2 1 C1.34 0.67 0.68 0.34 0 0 Z " fill="#271F1C" transform="translate(331,292)"/>
<path d="M0 0 C2.97 0 5.94 0 9 0 C9 11.55 9 23.1 9 35 C6.03 35 3.06 35 0 35 C0 23.45 0 11.9 0 0 Z " fill="#F1F1F0" transform="translate(231,300)"/>
<path d="M0 0 C2.97 0 5.94 0 9 0 C12.21599941 3.21599941 12.38084002 3.38603196 12.3984375 7.5625 C12.40230469 8.44164062 12.40617187 9.32078125 12.41015625 10.2265625 C12.39855469 11.14179688 12.38695312 12.05703125 12.375 13 C12.38660156 13.91523438 12.39820313 14.83046875 12.41015625 15.7734375 C12.40628906 16.65257812 12.40242188 17.53171875 12.3984375 18.4375 C12.39505371 19.24058594 12.39166992 20.04367187 12.38818359 20.87109375 C12 23 12 23 9 26 C6.03 26 3.06 26 0 26 C0 17.42 0 8.84 0 0 Z " fill="#625656" transform="translate(307,361)"/>
<path d="M0 0 C3.5625 0.25 3.5625 0.25 6.5625 2.25 C6.93481445 4.46484375 6.93481445 4.46484375 6.92578125 7.1875 C6.92513672 8.16460937 6.92449219 9.14171875 6.92382812 10.1484375 C6.90771484 11.17195313 6.89160156 12.19546875 6.875 13.25 C6.87822266 14.27351563 6.88144531 15.29703125 6.88476562 16.3515625 C6.82939161 23.98310839 6.82939161 23.98310839 4.5625 26.25 C2.6875 26.55078125 2.6875 26.55078125 0.5625 26.5625 C-0.13875 26.57925781 -0.84 26.59601563 -1.5625 26.61328125 C-2.18125 26.49339844 -2.8 26.37351562 -3.4375 26.25 C-5.58144034 23.0340895 -5.69330474 22.13969066 -5.703125 18.43359375 C-5.70570313 17.50482422 -5.70828125 16.57605469 -5.7109375 15.61914062 C-5.69933594 14.16797852 -5.69933594 14.16797852 -5.6875 12.6875 C-5.69523437 11.71619141 -5.70296875 10.74488281 -5.7109375 9.74414062 C-5.70835937 8.81666016 -5.70578125 7.88917969 -5.703125 6.93359375 C-5.70086914 6.08337646 -5.69861328 5.23315918 -5.69628906 4.35717773 C-5.22111031 0.48805713 -3.68705955 0.26814979 0 0 Z " fill="#E9E7E7" transform="translate(288.4375,360.75)"/>
<path d="M0 0 C0.33 0 0.66 0 1 0 C1.91045727 4.63104563 2.13279048 9.10177427 2.09765625 13.8046875 C2.0962413 14.5286673 2.09482635 15.25264709 2.09336853 15.99856567 C2.08781075 18.29075407 2.07526633 20.58284157 2.0625 22.875 C2.05747953 24.43749858 2.05291759 25.99999871 2.04882812 27.5625 C2.03785519 31.37503835 2.0206201 35.18750212 2 39 C0.02 39 -1.96 39 -4 39 C-4.02935775 34.70834802 -4.04691802 30.41672236 -4.0625 26.125 C-4.07087891 24.92101562 -4.07925781 23.71703125 -4.08789062 22.4765625 C-4.10662365 15.58280854 -3.87608826 8.84079737 -3 2 C-2.34 2 -1.68 2 -1 2 C-0.67 1.34 -0.34 0.68 0 0 Z " fill="#201714" transform="translate(200,303)"/>
<path d="M0 0 C0.33 0.66 0.66 1.32 1 2 C0.67 2.66 0.34 3.32 0 4 C1.65 4 3.3 4 5 4 C5.8125 7.1875 5.8125 7.1875 6 11 C4 13.9375 4 13.9375 1 16 C-2.99048721 16.63007693 -5.01685857 16.63021887 -8.4375 14.4375 C-10.63021887 11.01685857 -10.63007693 8.99048721 -10 5 C-7.0256495 1.00587219 -5.05072617 -0.72153231 0 0 Z " fill="#252424" transform="translate(343,219)"/>
<path d="M0 0 C0 0.99 0 1.98 0 3 C1.65 3.33 3.3 3.66 5 4 C5.33609819 7.61305558 5.19511045 9.62603831 3.5 12.875 C0.47084317 15.44978331 -1.20650771 15.74545844 -5.09375 15.484375 C-7 15 -7 15 -9.5 12.875 C-11.25584708 9.50962644 -11.63656938 7.73984509 -11 4 C-7.42042053 -0.41481468 -5.44964606 -1.29070564 0 0 Z " fill="#232121" transform="translate(264,220)"/>
<path d="M0 0 C3.125 -0.1875 3.125 -0.1875 6 0 C6 0.99 6 1.98 6 3 C5.01 3.33 4.02 3.66 3 4 C2.96261719 4.72445312 2.92523438 5.44890625 2.88671875 6.1953125 C2.50139002 11.86191152 2.015464 16.14903618 -1 21 C-0.51917969 21.53109375 -0.03835938 22.0621875 0.45703125 22.609375 C2.38380447 25.59465402 2.4958424 27.72350016 2.6875 31.25 C2.75324219 32.32765625 2.81898438 33.4053125 2.88671875 34.515625 C2.92410156 35.33546875 2.96148437 36.1553125 3 37 C3.99 37.33 4.98 37.66 6 38 C6 38.99 6 39.98 6 41 C3.6875 41.25 3.6875 41.25 1 41 C-2.9103926 37.09891786 -2.39913417 33.00669698 -2.49609375 27.77734375 C-2.73593217 24.86504424 -2.73593217 24.86504424 -5.03515625 23.12890625 C-5.68355469 22.75636719 -6.33195312 22.38382813 -7 22 C-6.6875 20.125 -6.6875 20.125 -6 18 C-5.01 17.34 -4.02 16.68 -3 16 C-2.4887275 12.98271868 -2.4887275 12.98271868 -2.4375 9.5625 C-2.20697812 3.31046718 -2.20697812 3.31046718 0 0 Z " fill="#302E2E" transform="translate(317,207)"/>
<path d="M0 0 C1.1446875 0.12375 1.1446875 0.12375 2.3125 0.25 C2.3125 1.24 2.3125 2.23 2.3125 3.25 C1.3225 3.58 0.3325 3.91 -0.6875 4.25 C-0.72488281 5.05824219 -0.76226562 5.86648437 -0.80078125 6.69921875 C-0.86652344 7.76785156 -0.93226563 8.83648437 -1 9.9375 C-1.05800781 10.99324219 -1.11601562 12.04898438 -1.17578125 13.13671875 C-1.72532064 16.48009964 -2.77424018 18.48526262 -4.6875 21.25 C-3.96626953 21.78560547 -3.96626953 21.78560547 -3.23046875 22.33203125 C-1.00325162 25.10054672 -1.17355989 27.43159023 -1 30.9375 C-0.90138672 32.70673828 -0.90138672 32.70673828 -0.80078125 34.51171875 C-0.76339844 35.41535156 -0.72601563 36.31898438 -0.6875 37.25 C0.3025 37.58 1.2925 37.91 2.3125 38.25 C2.3125 39.24 2.3125 40.23 2.3125 41.25 C0 41.5 0 41.5 -2.6875 41.25 C-6.79484222 37.23088231 -6.13527979 32.56149945 -6.28125 27.1484375 C-6.4153125 26.19195312 -6.549375 25.23546875 -6.6875 24.25 C-7.6775 23.59 -8.6675 22.93 -9.6875 22.25 C-9.6875 20.93 -9.6875 19.61 -9.6875 18.25 C-8.6975 18.25 -7.7075 18.25 -6.6875 18.25 C-6.63142578 16.80367187 -6.63142578 16.80367187 -6.57421875 15.328125 C-6.50847656 14.06484375 -6.44273437 12.8015625 -6.375 11.5 C-6.31699219 10.24703125 -6.25898438 8.9940625 -6.19921875 7.703125 C-5.54566187 3.29286333 -4.73258424 0.44024039 0 0 Z " fill="#2B2929" transform="translate(240.6875,206.75)"/>
<path d="M0 0 C2.3125 -0.25 2.3125 -0.25 5 0 C8.31140054 3.24771976 8.46222674 6.24453474 8.6875 10.75 C8.75324219 11.92046875 8.81898438 13.0909375 8.88671875 14.296875 C8.92410156 15.18890625 8.96148437 16.0809375 9 17 C9.99 17.33 10.98 17.66 12 18 C12 19.32 12 20.64 12 22 C11.01 22.66 10.02 23.32 9 24 C8.52644267 26.98484654 8.52644267 26.98484654 8.5 30.375 C8.2996508 37.77122476 8.2996508 37.77122476 5 41 C2.3125 41.25 2.3125 41.25 0 41 C0 40.01 0 39.02 0 38 C1.485 37.505 1.485 37.505 3 37 C3.03738281 36.10796875 3.07476562 35.2159375 3.11328125 34.296875 C3.17902344 33.12640625 3.24476563 31.9559375 3.3125 30.75 C3.37050781 29.58984375 3.42851562 28.4296875 3.48828125 27.234375 C4.01711803 23.89180362 4.73772333 22.4502943 7 20 C6.525625 19.401875 6.05125 18.80375 5.5625 18.1875 C3.31369498 13.59993775 3.256466 9.04972703 3 4 C2.01 3.67 1.02 3.34 0 3 C0 2.01 0 1.02 0 0 Z " fill="#2B2A2A" transform="translate(279,207)"/>
<path d="M0 0 C2.875 -0.125 2.875 -0.125 6 0 C8.75544831 2.75544831 8.36279855 4.65893377 8.5625 8.5 C8.66407271 12.90933762 8.66407271 12.90933762 10 17 C10.99 17.33 11.98 17.66 13 18 C13 19.32 13 20.64 13 22 C12.35289062 22.4434375 11.70578125 22.886875 11.0390625 23.34375 C8.67836051 24.89245746 8.67836051 24.89245746 8.4609375 28.03125 C8.43257813 29.1759375 8.40421875 30.320625 8.375 31.5 C8.19316843 37.71024735 8.19316843 37.71024735 6 41 C2.875 41.1875 2.875 41.1875 0 41 C0 40.01 0 39.02 0 38 C0.64839844 37.79117188 1.29679687 37.58234375 1.96484375 37.3671875 C2.63644531 36.91601562 3.30804688 36.46484375 4 36 C4.59401052 33.25121186 4.59401052 33.25121186 4.5625 30.125 C4.65541064 25.67622004 4.96110021 23.33714725 8 20 C7.50886719 19.64292969 7.01773437 19.28585938 6.51171875 18.91796875 C4.28627194 16.09446905 4.70749078 13.84781046 4.8125 10.3125 C4.85310547 8.54326172 4.85310547 8.54326172 4.89453125 6.73828125 C4.92933594 5.83464844 4.96414063 4.93101562 5 4 C3.35 3.67 1.7 3.34 0 3 C0 2.01 0 1.02 0 0 Z " fill="#272626" transform="translate(358,207)"/>
<path d="M0 0 C1.9375 1.0625 1.9375 1.0625 3 3 C3.1875 6.6875 3.1875 6.6875 3 10 C2.01 10 1.02 10 0 10 C-0.33 8.02 -0.66 6.04 -1 4 C-2.65 4 -4.3 4 -6 4 C-6 9.94 -6 15.88 -6 22 C-4.35 22 -2.7 22 -1 22 C-0.67 21.01 -0.34 20.02 0 19 C0.99 19 1.98 19 3 19 C2.25 23.75 2.25 23.75 0 26 C-6.22202333 26.56563848 -6.22202333 26.56563848 -8.69775391 24.765625 C-10.35452681 22.51932173 -10.38674841 21.21171109 -10.3984375 18.4375 C-10.40230469 17.55835938 -10.40617187 16.67921875 -10.41015625 15.7734375 C-10.39855469 14.85820312 -10.38695312 13.94296875 -10.375 13 C-10.39240234 11.62714844 -10.39240234 11.62714844 -10.41015625 10.2265625 C-10.40628906 9.34742188 -10.40242188 8.46828125 -10.3984375 7.5625 C-10.39336182 6.35787109 -10.39336182 6.35787109 -10.38818359 5.12890625 C-9.33673761 -0.63751447 -5.07490331 -0.54373964 0 0 Z " fill="#544747" transform="translate(269,361)"/>
<path d="M0 0 C3.3 0 6.6 0 10 0 C10 5.28 10 10.56 10 16 C7.03 16 4.06 16 1 16 C0.67 10.72 0.34 5.44 0 0 Z " fill="#EDECEC" transform="translate(302,299)"/>
<path d="M0 0 C3.5625 0.25 3.5625 0.25 6.5625 2.25 C6.93481445 4.46484375 6.93481445 4.46484375 6.92578125 7.1875 C6.92513672 8.16460937 6.92449219 9.14171875 6.92382812 10.1484375 C6.90771484 11.17195313 6.89160156 12.19546875 6.875 13.25 C6.87822266 14.27351563 6.88144531 15.29703125 6.88476562 16.3515625 C6.82939161 23.98310839 6.82939161 23.98310839 4.5625 26.25 C2.6875 26.55078125 2.6875 26.55078125 0.5625 26.5625 C-0.13875 26.57925781 -0.84 26.59601563 -1.5625 26.61328125 C-2.18125 26.49339844 -2.8 26.37351562 -3.4375 26.25 C-5.58144034 23.0340895 -5.69330474 22.13969066 -5.703125 18.43359375 C-5.70570313 17.50482422 -5.70828125 16.57605469 -5.7109375 15.61914062 C-5.69933594 14.16797852 -5.69933594 14.16797852 -5.6875 12.6875 C-5.69523437 11.71619141 -5.70296875 10.74488281 -5.7109375 9.74414062 C-5.70835937 8.81666016 -5.70578125 7.88917969 -5.703125 6.93359375 C-5.70086914 6.08337646 -5.69861328 5.23315918 -5.69628906 4.35717773 C-5.22111031 0.48805713 -3.68705955 0.26814979 0 0 Z M-3.4375 4.25 C-3.5358721 5.58043625 -3.56828592 6.91593344 -3.5703125 8.25 C-3.57160156 9.054375 -3.57289063 9.85875 -3.57421875 10.6875 C-3.57035156 11.533125 -3.56648438 12.37875 -3.5625 13.25 C-3.56636719 14.095625 -3.57023437 14.94125 -3.57421875 15.8125 C-3.57292969 16.616875 -3.57164062 17.42125 -3.5703125 18.25 C-3.56918457 18.9925 -3.56805664 19.735 -3.56689453 20.5 C-3.62692216 22.27825811 -3.62692216 22.27825811 -2.4375 23.25 C0.5625 23.41666667 0.5625 23.41666667 3.5625 23.25 C5.0845959 21.7279041 4.69209521 20.36789918 4.6953125 18.25 C4.69660156 17.445625 4.69789063 16.64125 4.69921875 15.8125 C4.69535156 14.966875 4.69148438 14.12125 4.6875 13.25 C4.69136719 12.404375 4.69523437 11.55875 4.69921875 10.6875 C4.69728516 9.4809375 4.69728516 9.4809375 4.6953125 8.25 C4.69418457 7.5075 4.69305664 6.765 4.69189453 6 C4.75192216 4.22174189 4.75192216 4.22174189 3.5625 3.25 C-0.23990375 2.77263947 -0.23990375 2.77263947 -3.4375 4.25 Z " fill="#2C1D1D" transform="translate(288.4375,360.75)"/>
<path d="M0 0 C3.63 0 7.26 0 11 0 C11 0.99 11 1.98 11 3 C8.36 3 5.72 3 3 3 C3 5.97 3 8.94 3 12 C4.98 12 6.96 12 9 12 C9 12.66 9 13.32 9 14 C7.02 14 5.04 14 3 14 C3 16.97 3 19.94 3 23 C5.64 23 8.28 23 11 23 C11 23.99 11 24.98 11 26 C7.37 26 3.74 26 0 26 C0 17.42 0 8.84 0 0 Z " fill="#4B3E3E" transform="translate(331,361)"/>
<path d="M0 0 C1.98 0 3.96 0 6 0 C6 6.6 6 13.2 6 20 C4.02 20 2.04 20 0 20 C0 13.4 0 6.8 0 0 Z " fill="#FDFDFD" transform="translate(310,364)"/>
<path d="M0 0 C2.31 0 4.62 0 7 0 C7 0.33 7 0.66 7 1 C5.35 1 3.7 1 2 1 C2 7.93 2 14.86 2 22 C3.98 22 5.96 22 8 22 C8.495 13.09 8.495 13.09 9 4 C9.33 4 9.66 4 10 4 C10.02888514 7.14581423 10.04675923 10.29159469 10.0625 13.4375 C10.07087891 14.33533203 10.07925781 15.23316406 10.08789062 16.15820312 C10.09111328 17.01220703 10.09433594 17.86621094 10.09765625 18.74609375 C10.10289307 19.53685303 10.10812988 20.3276123 10.11352539 21.14233398 C10 23 10 23 9 24 C6.03 24 3.06 24 0 24 C0 16.08 0 8.16 0 0 Z " fill="#302121" transform="translate(308,362)"/>
<path d="M0 0 C0.99 0 1.98 0 3 0 C3 8.58 3 17.16 3 26 C2.01 26 1.02 26 0 26 C0 17.42 0 8.84 0 0 Z " fill="#1D1B1B" transform="translate(299,215)"/>
<path d="M0 0 C3.5625 0.3125 3.5625 0.3125 5.5 1.375 C7.11729605 4.32418691 6.74880138 7.02117559 6.5625 10.3125 C5.5725 10.3125 4.5825 10.3125 3.5625 10.3125 C3.2325 8.3325 2.9025 6.3525 2.5625 4.3125 C0.89638095 4.269779 -0.77132885 4.27186168 -2.4375 4.3125 C-4.49672402 6.37172402 -3.85177579 10.52958124 -4 13.375 C-4.04318359 14.13361328 -4.08636719 14.89222656 -4.13085938 15.67382812 C-4.23723633 17.55315438 -4.33789934 19.43280244 -4.4375 21.3125 C-4.7675 21.3125 -5.0975 21.3125 -5.4375 21.3125 C-5.49541844 18.18757749 -5.53106746 15.06279234 -5.5625 11.9375 C-5.57925781 11.04804688 -5.59601563 10.15859375 -5.61328125 9.2421875 C-5.61972656 8.39140625 -5.62617188 7.540625 -5.6328125 6.6640625 C-5.64328613 5.87854004 -5.65375977 5.09301758 -5.66455078 4.28369141 C-5.2287754 0.50041137 -3.54522637 0.32229331 0 0 Z " fill="#453737" transform="translate(265.4375,360.6875)"/>
<path d="M0 0 C0.52078125 0.23589844 1.0415625 0.47179687 1.578125 0.71484375 C-0.84970853 4.35659405 -2.27270289 4.63729451 -6.359375 5.96484375 C-7.42027344 6.320625 -8.48117187 6.67640625 -9.57421875 7.04296875 C-12.421875 7.71484375 -12.421875 7.71484375 -15.421875 6.71484375 C-13.34614419 5.51199974 -11.26304405 4.32778674 -9.171875 3.15234375 C-8.29208984 2.63897461 -8.29208984 2.63897461 -7.39453125 2.11523438 C-2.96392641 -0.34897843 -2.96392641 -0.34897843 0 0 Z " fill="#413E3A" transform="translate(291.421875,192.28515625)"/>
<path d="M0 0 C0.80859375 1.6796875 0.80859375 1.6796875 1 4 C-1.08984375 6.5078125 -1.08984375 6.5078125 -3.9375 9.125 C-5.6554832 10.7177382 -7.35071747 12.33622466 -9 14 C-9 14.66 -9 15.32 -9 16 C-10.98 16.33 -12.96 16.66 -15 17 C-14.319375 16.319375 -13.63875 15.63875 -12.9375 14.9375 C-12.48503906 14.48246094 -12.03257812 14.02742187 -11.56640625 13.55859375 C-10.45940566 12.45711436 -9.34104342 11.36699794 -8.21484375 10.28515625 C-4.90513459 7.07382485 -2.13736804 4.14900854 0 0 Z " fill="#39322F" transform="translate(256,182)"/>
<path d="M0 0 C6.625 -0.25 6.625 -0.25 10 2 C10 2.66 10 3.32 10 4 C7.98177083 3.73958333 5.96354167 3.47916667 3.9453125 3.21875 C1.4373753 2.93673296 0.29403369 2.85298315 -2 4 C-1.34 2.68 -0.68 1.36 0 0 Z " fill="#453737" transform="translate(285,361)"/>
<path d="M0 0 C0.99 0 1.98 0 3 0 C2.25 4.75 2.25 4.75 0 7 C-2.625 7.125 -2.625 7.125 -5 7 C-5 6.34 -5 5.68 -5 5 C-4.360625 4.731875 -3.72125 4.46375 -3.0625 4.1875 C-0.66868314 3.11332248 -0.66868314 3.11332248 0 0 Z " fill="#3C2E2E" transform="translate(269,380)"/>
<path d="M0 0 C0.99 0 1.98 0 3 0 C2.68289063 0.48984375 2.36578125 0.9796875 2.0390625 1.484375 C0.58626385 5.001677 0.53415248 8.49665393 0.375 12.25 C0.33632813 12.99507813 0.29765625 13.74015625 0.2578125 14.5078125 C0.16394892 16.3381524 0.08090282 18.16904143 0 20 C-0.33 20 -0.66 20 -1 20 C-1.02888514 16.85418577 -1.04675923 13.70840531 -1.0625 10.5625 C-1.07087891 9.66466797 -1.07925781 8.76683594 -1.08789062 7.84179688 C-1.09111328 6.98779297 -1.09433594 6.13378906 -1.09765625 5.25390625 C-1.10551147 4.06776733 -1.10551147 4.06776733 -1.11352539 2.85766602 C-1 1 -1 1 0 0 Z " fill="#281818" transform="translate(261,362)"/>
</svg>
