<?xml version="1.0" encoding="UTF-8"?>
<!DOCTYPE svg PUBLIC "-//W3C//DTD SVG 1.1//EN" "http://www.w3.org/Graphics/SVG/1.1/DTD/svg11.dtd">
<svg xmlns="http://www.w3.org/2000/svg" version="1.1" width="40px" height="40px" style="shape-rendering:geometricPrecision; text-rendering:geometricPrecision; image-rendering:optimizeQuality; fill-rule:evenodd; clip-rule:evenodd" xmlns:xlink="http://www.w3.org/1999/xlink">
<g><path style="opacity:0.863" fill="#656565" d="M 22.5,4.5 C 24.0652,6.50932 25.0652,8.84266 25.5,11.5C 23.1663,9.82429 22.1663,7.49096 22.5,4.5 Z"/></g>
<g><path style="opacity:0.739" fill="#e8e8ea" d="M 20.5,1.5 C 20.6716,2.49162 20.3382,3.15829 19.5,3.5C 18.1667,3.5 16.8333,3.5 15.5,3.5C 16.1621,7.46591 16.4955,11.4659 16.5,15.5C 13.8127,15.6641 11.146,15.4974 8.5,15C 7.69213,13.2942 6.3588,12.4609 4.5,12.5C 3.8969,17.6186 4.56356,22.2853 6.5,26.5C 5.83333,27.1667 5.16667,27.8333 4.5,28.5C 4.16667,28.5 3.83333,28.5 3.5,28.5C 2.05322,27.8658 1.38655,26.6991 1.5,25C 2.38657,20.5083 2.55324,16.0083 2,11.5C 2.95603,10.1059 4.28937,9.43928 6,9.5C 8.54691,10.2132 10.7136,11.5465 12.5,13.5C 13.1667,13.3333 13.8333,13.1667 14.5,13C 13.8333,10 13.1667,7 12.5,4C 14.3949,0.52229 17.0616,-0.311043 20.5,1.5 Z"/></g>
<g><path style="opacity:0.097" fill="#090909" d="M 37.5,18.5 C 38.5983,19.6009 38.765,20.9343 38,22.5C 36.2845,25.3974 33.7845,26.7307 30.5,26.5C 34.2389,25.0927 36.5722,22.426 37.5,18.5 Z"/></g>
<g><path style="opacity:1" fill="#616796" d="M 19.5,3.5 C 21.0332,7.43306 22.3666,11.4331 23.5,15.5C 26.5184,15.3354 29.5184,15.502 32.5,16C 35.1667,18.3333 35.1667,20.6667 32.5,23C 28.8433,23.0498 25.51,23.8832 22.5,25.5C 22.1046,28.6862 21.1046,31.6862 19.5,34.5C 18.3112,35.4287 16.9778,35.762 15.5,35.5C 15.8333,31.5 16.1667,27.5 16.5,23.5C 14.6583,23.2767 12.825,22.9434 11,22.5C 8.84949,23.1666 7.34949,24.4999 6.5,26.5C 4.56356,22.2853 3.8969,17.6186 4.5,12.5C 6.3588,12.4609 7.69213,13.2942 8.5,15C 11.146,15.4974 13.8127,15.6641 16.5,15.5C 16.4955,11.4659 16.1621,7.46591 15.5,3.5C 16.8333,3.5 18.1667,3.5 19.5,3.5 Z"/></g>
<g><path style="opacity:1" fill="#d4eafd" d="M 18.5,16.5 C 19.8333,16.5 21.1667,16.5 22.5,16.5C 25.5184,16.3354 28.5184,16.502 31.5,17C 34.1667,18.6667 34.1667,20.3333 31.5,22C 28.5184,22.498 25.5184,22.6646 22.5,22.5C 21.1667,22.5 19.8333,22.5 18.5,22.5C 14.6002,21.5701 10.6002,21.2367 6.5,21.5C 6.5,20.1667 6.5,18.8333 6.5,17.5C 10.5341,17.4955 14.5341,17.1621 18.5,16.5 Z"/></g>
<g><path style="opacity:1" fill="#6eb9f8" d="M 22.5,16.5 C 21.1667,16.5 19.8333,16.5 18.5,16.5C 16.9728,0.929924 18.3062,0.929924 22.5,16.5 Z"/></g>
<g><path style="opacity:0.998" fill="#d5d4d7" d="M 20.5,1.5 C 21.9063,1.97306 22.573,2.97306 22.5,4.5C 22.1663,7.49096 23.1663,9.82429 25.5,11.5C 28.3718,12.3254 31.3718,13.1588 34.5,14C 36.1412,15.129 37.1412,16.629 37.5,18.5C 36.5722,22.426 34.2389,25.0927 30.5,26.5C 28.8008,26.3398 27.1341,26.5065 25.5,27C 23.8784,30.0274 22.5451,33.1941 21.5,36.5C 19.8273,38.0863 17.8273,38.7529 15.5,38.5C 14.1634,37.6851 13.1634,36.5185 12.5,35C 13.4438,32.2809 13.7771,29.4475 13.5,26.5C 14.2918,25.8143 13.7918,25.481 12,25.5C 10.007,27.6349 7.50705,28.6349 4.5,28.5C 5.16667,27.8333 5.83333,27.1667 6.5,26.5C 7.34949,24.4999 8.84949,23.1666 11,22.5C 12.825,22.9434 14.6583,23.2767 16.5,23.5C 16.1667,27.5 15.8333,31.5 15.5,35.5C 16.9778,35.762 18.3112,35.4287 19.5,34.5C 21.1046,31.6862 22.1046,28.6862 22.5,25.5C 25.51,23.8832 28.8433,23.0498 32.5,23C 35.1667,20.6667 35.1667,18.3333 32.5,16C 29.5184,15.502 26.5184,15.3354 23.5,15.5C 22.3666,11.4331 21.0332,7.43306 19.5,3.5C 20.3382,3.15829 20.6716,2.49162 20.5,1.5 Z"/></g>
<g><path style="opacity:1" fill="#6eb9f8" d="M 18.5,22.5 C 19.8333,22.5 21.1667,22.5 22.5,22.5C 22.5,23.5 22.5,24.5 22.5,25.5C 20.9235,28.3522 19.4235,31.3522 18,34.5C 17.3064,30.446 17.4731,26.446 18.5,22.5 Z"/></g>
<g><path style="opacity:0.068" fill="#181818" d="M 13.5,26.5 C 11.6412,26.4609 10.3079,27.2942 9.5,29C 7.28841,29.7891 5.28841,29.6225 3.5,28.5C 3.83333,28.5 4.16667,28.5 4.5,28.5C 7.50705,28.6349 10.007,27.6349 12,25.5C 13.7918,25.481 14.2918,25.8143 13.5,26.5 Z"/></g>
<g><path style="opacity:0.166" fill="#070707" d="M 30.5,26.5 C 29.1225,27.2344 27.6225,27.9011 26,28.5C 24.812,32.6133 22.9786,36.28 20.5,39.5C 18.8333,39.5 17.1667,39.5 15.5,39.5C 15.5,39.1667 15.5,38.8333 15.5,38.5C 17.8273,38.7529 19.8273,38.0863 21.5,36.5C 22.5451,33.1941 23.8784,30.0274 25.5,27C 27.1341,26.5065 28.8008,26.3398 30.5,26.5 Z"/></g>
</svg>
