<?xml version="1.0" standalone="no"?>
<!DOCTYPE svg PUBLIC "-//W3C//DTD SVG 20010904//EN"
 "http://www.w3.org/TR/2001/REC-SVG-20010904/DTD/svg10.dtd">
<svg version="1.0" xmlns="http://www.w3.org/2000/svg"
 width="559.000000pt" height="447.000000pt" viewBox="0 0 559.000000 447.000000"
 preserveAspectRatio="xMidYMid meet">

<g transform="translate(0.000000,447.000000) scale(0.100000,-0.100000)"
fill="#000000" stroke="none">
<path d="M2575 3715 c-163 -29 -292 -75 -413 -147 -74 -43 -238 -207 -281
-281 -91 -154 -132 -373 -112 -585 15 -154 31 -212 92 -334 28 -55 68 -153 89
-216 l38 -115 7 94 c4 52 6 174 4 273 l-4 178 85 37 c101 44 194 105 273 179
42 41 57 50 57 37 0 -38 -43 -106 -103 -161 -61 -56 -61 -56 -26 -49 71 14
305 98 383 137 99 49 189 103 235 140 45 36 51 28 15 -19 -76 -100 -163 -177
-269 -235 -63 -35 -53 -35 65 1 147 45 253 87 396 155 117 57 333 190 349 216
25 41 35 -47 11 -103 -7 -18 -39 -70 -70 -115 -81 -117 -115 -202 -58 -150 33
31 69 49 142 73 30 10 60 22 66 26 17 14 24 -1 24 -55 0 -28 11 -125 25 -216
14 -91 28 -214 32 -275 l7 -110 18 75 c10 41 43 161 73 265 95 337 98 349 98
480 1 162 -30 265 -103 349 -17 18 -30 36 -30 39 0 3 20 13 45 23 25 9 44 19
42 21 -5 4 -72 -11 -98 -21 -14 -6 -17 4 -21 74 -3 44 -9 85 -14 90 -7 7 -9
-2 -6 -24 8 -70 -1 -74 -42 -18 -92 126 -298 226 -551 267 -110 18 -372 18
-470 0z"/>
<path d="M2227 2543 c-24 -6 -37 -43 -37 -104 0 -38 -4 -52 -20 -61 -11 -7
-20 -17 -20 -23 0 -6 9 -18 20 -28 15 -12 20 -29 20 -64 0 -63 18 -97 53 -101
31 -4 38 17 8 25 -16 4 -21 17 -26 62 -3 31 -12 68 -19 83 -12 23 -12 29 0 39
8 6 14 29 14 53 0 58 9 84 32 92 35 11 12 36 -25 27z"/>
<path d="M2600 2538 c0 -8 9 -21 20 -31 15 -12 20 -29 20 -65 0 -27 7 -57 16
-70 15 -21 15 -25 0 -41 -10 -11 -16 -35 -16 -63 0 -56 -7 -78 -26 -78 -8 0
-14 -7 -14 -15 0 -23 37 -18 54 7 10 14 16 44 16 75 0 41 5 57 20 70 11 10 20
22 20 28 0 6 -9 16 -20 23 -16 10 -20 23 -20 70 0 32 -6 65 -12 74 -18 22 -58
33 -58 16z"/>
<path d="M2970 2537 c-21 -11 -26 -22 -33 -77 -6 -45 -15 -72 -30 -88 l-22
-23 21 -17 c16 -13 23 -33 29 -82 7 -73 17 -90 51 -90 29 0 32 25 5 33 -15 3
-19 16 -23 65 -3 38 -11 68 -21 80 -15 17 -15 19 0 35 10 10 18 38 21 76 3 48
8 60 23 64 11 3 19 12 19 21 0 19 -7 20 -40 3z"/>
<path d="M3340 2536 c0 -8 9 -20 20 -26 16 -9 20 -21 20 -63 0 -31 6 -62 16
-75 14 -20 14 -24 0 -44 -10 -14 -16 -44 -16 -76 0 -45 -3 -55 -20 -59 -26 -7
-26 -33 -1 -33 34 0 51 28 51 84 0 38 6 61 20 79 11 14 20 28 20 31 0 3 -9 15
-20 26 -15 15 -20 33 -20 79 0 60 -7 73 -47 85 -17 6 -23 3 -23 -8z"/>
<path d="M2790 2350 c0 -73 4 -120 10 -120 6 0 10 47 10 120 0 73 -4 120 -10
120 -6 0 -10 -47 -10 -120z"/>
<path d="M2410 2423 c-32 -12 -50 -37 -50 -70 0 -62 65 -94 118 -57 30 21 32
94 3 94 -10 0 -21 9 -24 20 -5 20 -18 23 -47 13z"/>
<path d="M3143 2420 c-45 -18 -55 -72 -22 -114 27 -34 71 -35 104 -1 35 34 31
85 -5 85 -10 0 -20 9 -23 20 -6 21 -19 24 -54 10z"/>
<path d="M1748 1715 c4 -32 7 -35 38 -35 l34 0 0 -195 0 -195 35 0 35 0 0 194
0 195 33 3 c28 3 32 7 35 36 l3 32 -108 0 -109 0 4 -35z"/>
<path d="M2108 1739 c-16 -9 -18 -30 -18 -217 0 -149 3 -211 12 -220 7 -7 44
-12 95 -12 71 0 84 3 93 19 6 12 10 97 10 208 0 235 1 233 -103 233 -40 0 -80
-5 -89 -11z m122 -224 l0 -165 -40 0 -40 0 0 158 c0 87 3 162 7 165 3 4 21 7
40 7 l33 0 0 -165z"/>
<path d="M2428 1533 c1 -120 5 -224 7 -231 3 -9 29 -12 97 -10 l93 3 8 60 c4
33 6 134 5 225 l-3 165 -32 3 -33 3 0 -200 0 -201 -40 0 -40 0 0 200 0 200
-32 0 -33 0 3 -217z"/>
<path d="M2758 1520 l3 -230 35 0 35 0 -3 90 c-3 87 -2 90 19 90 24 0 25 -1
46 -110 12 -63 14 -65 46 -68 31 -3 33 -1 28 20 -3 13 -11 52 -18 87 -11 57
-10 64 4 73 14 8 17 28 17 133 0 148 3 145 -127 145 l-88 0 3 -230z m152 90
l0 -70 -39 0 -39 0 -4 70 -3 70 43 0 42 0 0 -70z"/>
<path d="M3098 1520 l3 -230 28 0 29 0 7 93 c4 50 4 144 1 207 -3 63 -6 125
-6 138 0 18 -5 22 -32 22 l-33 0 3 -230z"/>
<path d="M3306 1728 c-10 -14 -16 -44 -16 -76 0 -52 2 -57 75 -145 59 -73 75
-99 75 -124 0 -32 -2 -33 -39 -33 -37 0 -40 2 -43 33 -3 28 -6 32 -33 32 -28
0 -30 -3 -33 -42 -5 -74 6 -83 101 -83 51 0 88 5 95 12 7 7 12 40 12 76 l0 64
-66 80 c-47 56 -69 91 -74 119 l-7 39 43 0 c42 0 44 -1 44 -30 0 -27 3 -30 30
-30 30 0 30 1 30 55 0 67 -11 75 -109 75 -61 0 -72 -3 -85 -22z"/>
<path d="M3629 1718 c6 -28 12 -33 39 -36 l32 -3 0 -195 0 -194 35 0 35 0 0
194 0 195 33 3 c28 3 32 7 35 36 l3 32 -109 0 -109 0 6 -32z"/>
<path d="M2438 1100 c-15 -9 -18 -26 -18 -108 0 -108 6 -122 55 -122 35 0 55
15 55 42 0 25 -17 23 -25 -3 -5 -15 -14 -19 -33 -17 l-27 3 0 90 0 90 30 0
c27 0 30 -4 33 -33 2 -18 8 -30 13 -27 11 7 12 55 1 72 -11 18 -64 25 -84 13z"/>
<path d="M2658 1100 c-15 -9 -18 -26 -18 -108 0 -108 6 -122 55 -122 17 0 36
5 43 12 14 14 17 185 4 205 -11 18 -64 25 -84 13z m70 -95 c4 -97 -2 -117 -36
-113 -27 3 -27 3 -30 96 l-3 93 33 -3 33 -3 3 -70z"/>
<path d="M2860 985 l0 -115 43 0 c24 0 48 5 55 12 8 8 12 46 12 103 0 57 -4
95 -12 103 -7 7 -31 12 -55 12 l-43 0 0 -115z m74 92 c14 -10 16 -26 14 -97
-3 -84 -3 -85 -30 -88 l-28 -3 0 100 c0 106 5 116 44 88z"/>
<path d="M3090 985 l0 -115 45 0 c25 0 45 5 45 10 0 6 -16 10 -35 10 -35 0
-35 0 -35 45 0 41 2 45 25 45 14 0 25 5 25 10 0 6 -12 10 -26 10 -23 0 -25 3
-22 43 3 39 5 42 38 48 33 6 32 6 -12 8 l-48 1 0 -115z"/>
</g>
</svg>
